<?xml version="1.0" encoding="UTF-8" standalone="no"?>
<!-- Created with Inkscape (http://www.inkscape.org/) -->

<svg
   xmlns:dc="http://purl.org/dc/elements/1.1/"
   xmlns:cc="http://creativecommons.org/ns#"
   xmlns:rdf="http://www.w3.org/1999/02/22-rdf-syntax-ns#"
   xmlns:svg="http://www.w3.org/2000/svg"
   xmlns="http://www.w3.org/2000/svg"
   xmlns:sodipodi="http://sodipodi.sourceforge.net/DTD/sodipodi-0.dtd"
   xmlns:inkscape="http://www.inkscape.org/namespaces/inkscape"
   width="1024"
   height="1024"
   viewBox="0 0 1024 1024"
   id="svg2"
   version="1.1"
   inkscape:version="0.91 r13725"
   sodipodi:docname="ud_logo_v2.svg">
  <defs
     id="defs4" />
  <sodipodi:namedview
     id="base"
     pagecolor="#ffffff"
     bordercolor="#666666"
     borderopacity="1.0"
     inkscape:pageopacity="0.0"
     inkscape:pageshadow="2"
     inkscape:zoom="0.35"
     inkscape:cx="296.19979"
     inkscape:cy="502.85714"
     inkscape:document-units="px"
     inkscape:current-layer="layer1"
     showgrid="false"
     units="px"
     inkscape:snap-text-baseline="false"
     inkscape:window-width="1366"
     inkscape:window-height="715"
     inkscape:window-x="0"
     inkscape:window-y="26"
     inkscape:window-maximized="1" />
  <metadata
     id="metadata7">
    <rdf:RDF>
      <cc:Work
         rdf:about="">
        <dc:format>image/svg+xml</dc:format>
        <dc:type
           rdf:resource="http://purl.org/dc/dcmitype/StillImage" />
        <dc:title />
      </cc:Work>
    </rdf:RDF>
  </metadata>
  <g
     inkscape:label="Layer 1"
     inkscape:groupmode="layer"
     id="layer1"
     transform="translate(0,-28.362161)">
    <g
       style="font-style:normal;font-variant:normal;font-weight:normal;font-stretch:normal;font-size:541.21057129px;line-height:125%;font-family:Ethnocentric;-inkscape-font-specification:'Ethnocentric, Normal';text-align:start;letter-spacing:0px;word-spacing:0px;writing-mode:lr-tb;text-anchor:start;fill:#000000;fill-opacity:1;stroke:none;stroke-width:1px;stroke-linecap:butt;stroke-linejoin:miter;stroke-opacity:1"
       id="text4165">
      <path
         style=""
         d="M 109.7207 315.00781 L 109.7207 519.04492 C 109.7207 538.89528 112.19147 556.93934 117.10742 573.19727 L 221.20898 497.85742 L 221.20898 315.00781 L 109.7207 315.00781 z M 472.33203 315.00781 L 472.33203 316.11719 L 473.86523 315.00781 L 472.33203 315.00781 z M 546.96484 315.00781 L 472.33203 369.01953 L 472.33203 519.04492 C 472.33203 531.67317 470.34583 542.4974 466.37695 551.51758 C 462.76888 560.53775 456.63593 567.93412 447.97656 573.70703 C 439.31719 579.47994 427.77212 583.62864 413.33984 586.1543 C 398.90756 588.67994 380.86718 589.94336 359.21875 589.94336 C 330.35419 589.94336 306.90168 588.86015 288.86133 586.69531 C 270.82097 584.16966 256.74908 580.20117 246.64648 574.78906 C 236.9047 569.01616 230.22917 561.61979 226.62109 552.59961 C 226.03322 551.12992 225.49795 549.59635 225.00586 548.01172 L 136.64258 611.96094 C 145.2392 623.23989 155.92501 633.2229 168.71289 641.90039 C 189.27889 655.61106 215.25627 665.89271 246.64648 672.74805 C 278.0367 679.60338 315.5611 683.03125 359.21875 683.03125 C 371.85441 683.03125 383.94701 682.63629 395.52148 681.86523 L 583.21875 546.02734 C 584.3315 537.43404 584.90234 528.44679 584.90234 519.04492 L 584.90234 315.00781 L 546.96484 315.00781 z M 549.13672 623.59766 L 502.55469 657.30859 C 521.27395 648.39121 536.80134 637.15369 549.13672 623.59766 z "
         transform="translate(0,28.362161)"
         id="path4177" />
    </g>
    <g
       style="font-style:normal;font-variant:normal;font-weight:normal;font-stretch:normal;font-size:525.85681152px;line-height:125%;font-family:Ethnocentric;-inkscape-font-specification:'Ethnocentric, Normal';text-align:start;letter-spacing:0px;word-spacing:0px;writing-mode:lr-tb;text-anchor:start;fill:#000000;fill-opacity:1;stroke:none;stroke-width:1px;stroke-linecap:butt;stroke-linejoin:miter;stroke-opacity:1"
       id="text4169">
      <path
         style=""
         d="M 551.13672 315.00781 L 527.25586 332.80078 L 471.33984 406.50781 L 706.92383 406.50781 C 721.64782 406.50781 735.32085 408.78632 747.94141 413.34375 C 749.72496 413.93827 751.47282 414.57179 753.19336 415.23633 L 841.97852 350.98242 C 827.22434 341.41912 810.61003 333.62786 792.11328 327.62891 C 766.17101 319.2152 737.77409 315.00781 706.92383 315.00781 L 551.13672 315.00781 z M 876.10352 379.1875 L 791.22656 440.61328 C 795.97822 445.84092 799.95938 451.64728 803.15625 458.04102 C 808.41482 468.55816 811.04297 479.95267 811.04297 492.22266 C 811.04297 504.84322 808.41482 516.41255 803.15625 526.92969 C 797.89768 537.09625 790.71055 545.86066 781.5957 553.22266 C 772.48085 560.58466 761.43793 566.36737 748.4668 570.57422 C 735.84623 574.4305 721.99839 576.35937 706.92383 576.35938 L 603.65625 576.35938 L 478.67969 666.80664 L 706.92383 666.80664 C 737.42352 666.80664 765.64366 662.24962 791.58594 653.13477 C 817.5282 644.01991 839.79082 631.57453 858.37109 615.79883 C 877.30194 599.67255 892.02584 580.74127 902.54297 559.00586 C 913.41068 536.91987 918.84375 513.08193 918.84375 487.49023 C 918.84375 462.24911 913.58549 439.11045 903.06836 418.07617 C 895.98905 403.68157 886.99503 390.72296 876.10352 379.1875 z M 471.33984 447.52539 L 471.33984 619.21484 L 580.71875 540.05664 L 580.71875 447.52539 L 471.33984 447.52539 z "
         transform="translate(0,28.362161)"
         id="path4174" />
    </g>
  </g>
</svg>
